<!-- Generated by IcoMoon.io -->
<svg version="1.1" xmlns="http://www.w3.org/2000/svg" width="16" height="16" viewBox="0 0 1024 1024">
<title></title>
<g id="icomoon-ignore">
</g>
<path fill="#000" d="M192 192h128v-64c0-35.346 28.654-64 64-64h256c35.346 0 64 28.654 64 64v64h192c17.673 0 32 14.327 32 32s-14.327 32-32 32h-64v576c0 70.692-57.308 128-128 128h-384c-70.692 0-128-57.308-128-128v-576h-64c-17.673 0-32-14.327-32-32s14.327-32 32-32h64zM256 256v576c0 35.346 28.654 64 64 64h384c35.346 0 64-28.654 64-64v-576h-512zM640 192v-64h-256v64h256zM416 384c17.673 0 32 14.327 32 32v320c0 17.673-14.327 32-32 32s-32-14.327-32-32v-320c0-17.673 14.327-32 32-32zM608 384c17.673 0 32 14.327 32 32v320c0 17.673-14.327 32-32 32s-32-14.327-32-32v-320c0-17.673 14.327-32 32-32z"></path>
</svg>
