<!-- Generated by IcoMoon.io -->
<svg version="1.1" xmlns="http://www.w3.org/2000/svg" width="16" height="16" viewBox="0 0 1024 1024">
<title></title>
<g id="icomoon-ignore">
</g>
<path fill="#000" d="M544 109.143v626.857c0 17.673-14.327 32-32 32s-32-14.327-32-32v-626.36l-103.926 104.658c-12.453 12.541-32.714 12.612-45.255 0.159s-12.612-32.714-0.159-45.255l158.633-159.75c12.475-12.563 32.779-12.609 45.311-0.103l160.078 159.75c12.51 12.484 12.53 32.745 0.046 45.255s-32.745 12.53-45.255 0.046l-105.474-105.258zM320 384c17.673 0 32 14.327 32 32s-14.327 32-32 32h-64c-53.019 0-96 42.981-96 96v320c0 53.019 42.981 96 96 96h512c53.019 0 96-42.981 96-96v-320c0-53.019-42.981-96-96-96h-64c-17.673 0-32-14.327-32-32s14.327-32 32-32h64c88.366 0 160 71.634 160 160v320c0 88.366-71.634 160-160 160h-512c-88.366 0-160-71.634-160-160v-320c0-88.366 71.634-160 160-160h64z"></path>
</svg>
