<?xml version="1.0" encoding="UTF-8"?>
<svg width="14px" height="14px" viewBox="0 0 14 14" version="1.1" xmlns="http://www.w3.org/2000/svg" xmlns:xlink="http://www.w3.org/1999/xlink">
    <!-- Generator: Sketch 52.5 (67469) - http://www.bohemiancoding.com/sketch -->
    <title>icon-trash</title>
    <desc>Created with Sketch.</desc>
    <g id="Background-2" stroke="none" stroke-width="1" fill="none" fill-rule="evenodd">
        <g id="Desktop-HD-Copy" transform="translate(-1220.000000, -177.000000)" fill="#000000" fill-rule="nonzero">
            <g id="Group-15" transform="translate(1048.000000, 64.000000)">
                <g id="Group-23" transform="translate(9.000000, 108.000000)">
                    <g id="Group-20-Copy">
                        <g id="Group-13" transform="translate(163.000000, 5.000000)">
                            <path d="M2,2 L4,2 L4,1 C4,0.44771525 4.44771525,1.01453063e-16 5,0 L9,0 C9.55228475,-1.01453063e-16 10,0.44771525 10,1 L10,2 L12,2 L13,2 C13.2761424,2 13.5,2.22385763 13.5,2.5 C13.5,2.77614237 13.2761424,3 13,3 L12,3 L12,12 C12,13.1045695 11.1045695,14 10,14 L4,14 C2.8954305,14 2,13.1045695 2,12 L2,3 L1,3 C0.723857625,3 0.5,2.77614237 0.5,2.5 C0.5,2.22385763 0.723857625,2 1,2 L2,2 Z M3,3 L3,12 C3,12.5522847 3.44771525,13 4,13 L10,13 C10.5522847,13 11,12.5522847 11,12 L11,3 L3,3 Z M9,2 L9,1 L5,1 L5,2 L9,2 Z M5.5,5 C5.77614237,5 6,5.22385763 6,5.5 L6,10.5 C6,10.7761424 5.77614237,11 5.5,11 C5.22385763,11 5,10.7761424 5,10.5 L5,5.5 C5,5.22385763 5.22385763,5 5.5,5 Z M8.5,5 C8.77614237,5 9,5.22385763 9,5.5 L9,10.5 C9,10.7761424 8.77614237,11 8.5,11 C8.22385763,11 8,10.7761424 8,10.5 L8,5.5 C8,5.22385763 8.22385763,5 8.5,5 Z" id="icon-trash"></path>
                        </g>
                    </g>
                </g>
            </g>
        </g>
    </g>
</svg>