<?xml version="1.0" encoding="UTF-8"?>
<svg width="13px" height="16px" viewBox="0 0 13 16" version="1.1" xmlns="http://www.w3.org/2000/svg" xmlns:xlink="http://www.w3.org/1999/xlink">
    <!-- Generator: Sketch 52.5 (67469) - http://www.bohemiancoding.com/sketch -->
    <title>icon-share</title>
    <desc>Created with Sketch.</desc>
    <g id="Background-2" stroke="none" stroke-width="1" fill="none" fill-rule="evenodd">
        <g id="Desktop-HD-Copy-2" transform="translate(-985.000000, -22.000000)" fill="#000000" fill-rule="nonzero">
            <g id="Group-13" transform="translate(941.000000, 22.000000)">
                <g id="Group-12" transform="translate(44.000000, 0.000000)">
                    <path d="M7,1.70535756 L7,11.5 C7,11.7761424 6.77614237,12 6.5,12 C6.22385763,12 6,11.7761424 6,11.5 L6,1.71312239 L4.37615411,3.34840437 C4.18157833,3.54435048 3.86499779,3.54546134 3.66905168,3.35088556 C3.47310558,3.15630977 3.47199472,2.83972923 3.6665705,2.64378313 L6.14520819,0.147689377 C6.34012569,-0.0486008446 6.65738484,-0.0493202105 6.85319048,0.146084071 L9.35441118,2.64217782 C9.54987355,2.83723954 9.55019835,3.15382186 9.35513663,3.34928423 C9.16007492,3.5447466 8.84349259,3.5450714 8.64803022,3.35000968 L7,1.70535756 Z M3.5,6 C3.77614237,6 4,6.22385763 4,6.5 C4,6.77614237 3.77614237,7 3.5,7 L2.5,7 C1.67157288,7 1,7.67157288 1,8.5 L1,13.5 C1,14.3284271 1.67157288,15 2.5,15 L10.5,15 C11.3284271,15 12,14.3284271 12,13.5 L12,8.5 C12,7.67157288 11.3284271,7 10.5,7 L9.5,7 C9.22385763,7 9,6.77614237 9,6.5 C9,6.22385763 9.22385763,6 9.5,6 L10.5,6 C11.8807119,6 13,7.11928813 13,8.5 L13,13.5 C13,14.8807119 11.8807119,16 10.5,16 L2.5,16 C1.11928813,16 9.60620472e-14,14.8807119 9.59232693e-14,13.5 L9.59232693e-14,8.5 C9.57844914e-14,7.11928813 1.11928813,6 2.5,6 L3.5,6 Z" id="icon-share"></path>
                </g>
            </g>
        </g>
    </g>
</svg>