<?xml version="1.0" encoding="UTF-8"?>
<svg width="15px" height="12px" viewBox="0 0 15 12" version="1.1" xmlns="http://www.w3.org/2000/svg" xmlns:xlink="http://www.w3.org/1999/xlink">
    <!-- Generator: Sketch 52.5 (67469) - http://www.bohemiancoding.com/sketch -->
    <title>icon-calendar</title>
    <desc>Created with Sketch.</desc>
    <g id="Background" stroke="none" stroke-width="1" fill="none" fill-rule="evenodd">
        <g id="Desktop-HD-Copy-5" transform="translate(-406.000000, -836.000000)" fill="#6E5AFF" fill-rule="nonzero">
            <g id="Group-24-Copy" transform="translate(406.000000, 836.000000)">
                <path d="M2,0 L13,0 C14.1045695,-2.02906125e-16 15,0.8954305 15,2 L15,10 C15,11.1045695 14.1045695,12 13,12 L2,12 C0.8954305,12 1.3527075e-16,11.1045695 0,10 L0,2 C-1.3527075e-16,0.8954305 0.8954305,2.02906125e-16 2,0 Z M2,1 C1.44771525,1 1,1.44771525 1,2 L1,10 C1,10.5522847 1.44771525,11 2,11 L13,11 C13.5522847,11 14,10.5522847 14,10 L14,2 C14,1.44771525 13.5522847,1 13,1 L2,1 Z M3.5,3 L11.5,3 C11.7761424,3 12,3.22385763 12,3.5 C12,3.77614237 11.7761424,4 11.5,4 L3.5,4 C3.22385763,4 3,3.77614237 3,3.5 C3,3.22385763 3.22385763,3 3.5,3 Z M4.5,7 C4.22385763,7 4,6.77614237 4,6.5 C4,6.22385763 4.22385763,6 4.5,6 C4.77614237,6 5,6.22385763 5,6.5 C5,6.77614237 4.77614237,7 4.5,7 Z M4.5,9 C4.22385763,9 4,8.77614237 4,8.5 C4,8.22385763 4.22385763,8 4.5,8 C4.77614237,8 5,8.22385763 5,8.5 C5,8.77614237 4.77614237,9 4.5,9 Z M7.5,9 C7.22385763,9 7,8.77614237 7,8.5 C7,8.22385763 7.22385763,8 7.5,8 C7.77614237,8 8,8.22385763 8,8.5 C8,8.77614237 7.77614237,9 7.5,9 Z M10.5,9 C10.2238576,9 10,8.77614237 10,8.5 C10,8.22385763 10.2238576,8 10.5,8 C10.7761424,8 11,8.22385763 11,8.5 C11,8.77614237 10.7761424,9 10.5,9 Z M10.5,7 C10.2238576,7 10,6.77614237 10,6.5 C10,6.22385763 10.2238576,6 10.5,6 C10.7761424,6 11,6.22385763 11,6.5 C11,6.77614237 10.7761424,7 10.5,7 Z M7.5,7 C7.22385763,7 7,6.77614237 7,6.5 C7,6.22385763 7.22385763,6 7.5,6 C7.77614237,6 8,6.22385763 8,6.5 C8,6.77614237 7.77614237,7 7.5,7 Z" id="icon-calendar"></path>
            </g>
        </g>
    </g>
</svg>