<?xml version="1.0" encoding="UTF-8"?>
<svg width="14px" height="9px" viewBox="0 0 14 9" version="1.1" xmlns="http://www.w3.org/2000/svg" xmlns:xlink="http://www.w3.org/1999/xlink">
    <!-- Generator: Sketch 52.5 (67469) - http://www.bohemiancoding.com/sketch -->
    <title>icon-sidebar</title>
    <desc>Created with Sketch.</desc>
    <g id="Background-2" stroke="none" stroke-width="1" fill="none" fill-rule="evenodd">
        <g id="Desktop-HD-Copy-2" transform="translate(-360.000000, -25.000000)" fill="#0B061B" fill-rule="nonzero">
            <g id="Group-10" transform="translate(360.000000, 25.000000)">
                <path d="M0.5,0 L13.5,0 C13.7761424,-5.07265313e-17 14,0.223857625 14,0.5 C14,0.776142375 13.7761424,1 13.5,1 L0.5,1 C0.223857625,1 3.38176876e-17,0.776142375 0,0.5 C-3.38176876e-17,0.223857625 0.223857625,5.07265313e-17 0.5,0 Z M0.5,4 L13.5,4 C13.7761424,4 14,4.22385763 14,4.5 C14,4.77614237 13.7761424,5 13.5,5 L0.5,5 C0.223857625,5 3.38176876e-17,4.77614237 0,4.5 C-3.38176876e-17,4.22385763 0.223857625,4 0.5,4 Z M0.5,8 L13.5,8 C13.7761424,8 14,8.22385763 14,8.5 C14,8.77614237 13.7761424,9 13.5,9 L0.5,9 C0.223857625,9 3.38176876e-17,8.77614237 0,8.5 C-3.38176876e-17,8.22385763 0.223857625,8 0.5,8 Z" id="icon-sidebar"></path>
            </g>
        </g>
    </g>
</svg>