<?xml version="1.0" encoding="UTF-8"?>
<svg width="16px" height="7px" viewBox="0 0 16 7" version="1.1" xmlns="http://www.w3.org/2000/svg" xmlns:xlink="http://www.w3.org/1999/xlink">
    <!-- Generator: Sketch 52.5 (67469) - http://www.bohemiancoding.com/sketch -->
    <title>icon-link</title>
    <desc>Created with Sketch.</desc>
    <g id="Background-2" stroke="none" stroke-width="1" fill="none" fill-rule="evenodd">
        <g id="Desktop-HD-Copy-2" transform="translate(-941.000000, -27.000000)" fill="#1D182E" fill-rule="nonzero">
            <g id="Group-13" transform="translate(941.000000, 22.000000)">
                <g id="Group-11" transform="translate(0.000000, 5.000000)">
                    <path d="M6.5,6 C6.77614237,6 7,6.22385763 7,6.5 C7,6.77614237 6.77614237,7 6.5,7 L3.5,7 C1.56700338,7 -1.34744068e-13,5.43299662 -1.3500312e-13,3.5 C-1.35262172e-13,1.56700338 1.56700338,-5.56314254e-14 3.5,-5.59552404e-14 L6.5,-5.63993297e-14 C6.77614237,-5.64402069e-14 7,0.223857625 7,0.5 C7,0.776142375 6.77614237,1 6.5,1 L3.5,1 C2.11928813,1 1,2.11928813 1,3.5 C1,4.88071187 2.11928813,6 3.5,6 L6.5,6 Z M9.5,6 L12.5,6 C13.8807119,6 15,4.88071187 15,3.5 C15,2.11928813 13.8807119,1 12.5,1 L9.5,1 C9.22385763,1 9,0.776142375 9,0.5 C9,0.223857625 9.22385763,-5.64402069e-14 9.5,-5.63993297e-14 L12.5,-5.59552404e-14 C14.4329966,-5.55666624e-14 16,1.56700338 16,3.5 C16,5.43299662 14.4329966,7 12.5,7 L9.5,7 C9.22385763,7 9,6.77614237 9,6.5 C9,6.22385763 9.22385763,6 9.5,6 Z M4.5,3 L11.5,3 C11.7761424,3 12,3.22385763 12,3.5 C12,3.77614237 11.7761424,4 11.5,4 L4.5,4 C4.22385763,4 4,3.77614237 4,3.5 C4,3.22385763 4.22385763,3 4.5,3 Z" id="icon-link"></path>
                </g>
            </g>
        </g>
    </g>
</svg>