<!-- Generated by IcoMoon.io -->
<svg version="1.1" xmlns="http://www.w3.org/2000/svg" width="16" height="16" viewBox="0 0 1024 1024">
<title></title>
<g id="icomoon-ignore">
</g>
<path fill="#000" d="M416 672c17.673 0 32 14.327 32 32s-14.327 32-32 32h-192c-123.712 0-224-100.288-224-224s100.288-224 224-224h192c17.673 0 32 14.327 32 32s-14.327 32-32 32h-192c-88.366 0-160 71.634-160 160s71.634 160 160 160h192zM608 672h192c88.366 0 160-71.634 160-160s-71.634-160-160-160h-192c-17.673 0-32-14.327-32-32s14.327-32 32-32h192c123.712 0 224 100.288 224 224s-100.288 224-224 224h-192c-17.673 0-32-14.327-32-32s14.327-32 32-32zM288 480h448c17.673 0 32 14.327 32 32s-14.327 32-32 32h-448c-17.673 0-32-14.327-32-32s14.327-32 32-32z"></path>
</svg>
