<?xml version="1.0" encoding="UTF-8"?>
<svg width="14px" height="14px" viewBox="0 0 14 14" version="1.1" xmlns="http://www.w3.org/2000/svg" xmlns:xlink="http://www.w3.org/1999/xlink">
    <!-- Generator: Sketch 52.5 (67469) - http://www.bohemiancoding.com/sketch -->
    <title>icon-clock</title>
    <desc>Created with Sketch.</desc>
    <g id="Background-2" stroke="none" stroke-width="1" fill="none" fill-rule="evenodd">
        <g id="Desktop-HD-Copy-2" transform="translate(-398.000000, -22.000000)" fill="#0B061B" fill-rule="nonzero">
            <g id="Group-8" transform="translate(398.000000, 20.000000)">
                <g id="Group-14" transform="translate(0.000000, 2.000000)">
                    <path d="M7,14 C3.13400675,14 0,10.8659932 0,7 C0,3.13400675 3.13400675,0 7,0 C10.8659932,0 14,3.13400675 14,7 C14,10.8659932 10.8659932,14 7,14 Z M7,13 C10.3137085,13 13,10.3137085 13,7 C13,3.6862915 10.3137085,1 7,1 C3.6862915,1 1,3.6862915 1,7 C1,10.3137085 3.6862915,13 7,13 Z M7,7 L10,7 C10.2761424,7 10.5,7.22385763 10.5,7.5 C10.5,7.77614237 10.2761424,8 10,8 L6.5,8 C6.22385763,8 6,7.77614237 6,7.5 L6,4 C6,3.72385763 6.22385763,3.5 6.5,3.5 C6.77614237,3.5 7,3.72385763 7,4 L7,7 Z" id="icon-clock"></path>
                </g>
            </g>
        </g>
    </g>
</svg>