<?xml version="1.0" encoding="UTF-8"?>
<svg width="14px" height="16px" viewBox="0 0 14 16" version="1.1" xmlns="http://www.w3.org/2000/svg" xmlns:xlink="http://www.w3.org/1999/xlink">
    <!-- Generator: Sketch 52.5 (67469) - http://www.bohemiancoding.com/sketch -->
    <title>icon-person</title>
    <desc>Created with Sketch.</desc>
    <g id="Background" stroke="none" stroke-width="1" fill="none" fill-rule="evenodd">
        <g id="Desktop-HD-Copy-5" transform="translate(-407.000000, -898.000000)" fill="#6A57F5" fill-rule="nonzero">
            <g id="Group-26-Copy" transform="translate(407.000000, 898.000000)">
                <path d="M7,8 C4.790861,8 3,6.209139 3,4 C3,1.790861 4.790861,0 7,0 C9.209139,0 11,1.790861 11,4 C11,6.209139 9.209139,8 7,8 Z M7,7 C8.65685425,7 10,5.65685425 10,4 C10,2.34314575 8.65685425,1 7,1 C5.34314575,1 4,2.34314575 4,4 C4,5.65685425 5.34314575,7 7,7 Z M13.1979044,12.6230326 C13.2745696,12.7563783 13.3302693,12.9007224 13.3630499,13.0510024 C13.5396051,13.8604053 13.0265807,14.6596823 12.2171778,14.8362375 C10.6491349,15.1782601 8.91007666,15.3492785 7,15.3492785 C5.08991529,15.3492785 3.35085043,15.1782587 1.78280543,14.836219 C1.63252949,14.8034391 1.48818923,14.747741 1.35484692,14.671078 C0.636662768,14.25817 0.38918758,13.3412386 0.802086171,12.623049 C2.19076069,10.207683 4.25673197,9 7,9 C9.74326181,9 11.8092299,10.2076775 13.1979044,12.6230326 Z M12.3309741,13.121462 C11.1198489,11.0149226 9.3836257,10 7,10 C4.61636891,10 2.88014305,11.0149272 1.66902399,13.1214653 C1.53138882,13.3608658 1.61388198,13.6665119 1.85327464,13.8041467 C1.89772143,13.8297007 1.94583415,13.8482665 1.9959254,13.8591929 C3.49064827,14.1852388 5.15873386,14.3492785 7,14.3492785 C8.84125842,14.3492785 10.5093378,14.1852402 12.0040729,13.8591933 C12.2738689,13.8003476 12.4448761,13.5339254 12.3860237,13.2641213 C12.3750966,13.214027 12.3565297,13.1659114 12.3309741,13.121462 Z" id="icon-person"></path>
            </g>
        </g>
    </g>
</svg>