<?xml version="1.0" encoding="UTF-8"?>
<svg width="14px" height="14px" viewBox="0 0 14 14" version="1.1" xmlns="http://www.w3.org/2000/svg" xmlns:xlink="http://www.w3.org/1999/xlink">
    <!-- Generator: Sketch 52.5 (67469) - http://www.bohemiancoding.com/sketch -->
    <title>icon-hide</title>
    <desc>Created with Sketch.</desc>
    <g id="Background-2" stroke="none" stroke-width="1" fill="none" fill-rule="evenodd">
        <g id="Desktop-HD-Copy-2" transform="translate(-287.000000, -22.000000)" fill="#B6B5BC" fill-rule="nonzero">
            <g id="Group-10" transform="translate(20.000000, 20.000000)">
                <g id="Group-9" transform="translate(268.000000, 3.000000)">
                    <g id="Group-11-Copy">
                        <path d="M12.3536109,11.6484573 C12.5488413,11.8437512 12.5487898,12.1603337 12.3534959,12.355564 C12.1582019,12.5507944 11.8416194,12.5507429 11.6463891,12.355449 L5.64638908,6.35349585 C5.45118118,6.1582244 5.45120693,5.84168629 5.64644661,5.64644661 L11.6464466,-0.353553391 C11.8417088,-0.548815536 12.1582912,-0.548815536 12.3535534,-0.353553391 C12.5488155,-0.158291245 12.5488155,0.158291245 12.3535534,0.353553391 L6.70704925,6.00005753 L12.3536109,11.6484573 Z M6.35361092,11.6484573 C6.54884129,11.8437512 6.54878977,12.1603337 6.35349585,12.355564 C6.15820193,12.5507944 5.84161945,12.5507429 5.64638908,12.355449 L-0.353610921,6.35349585 C-0.548818824,6.1582244 -0.548793068,5.84168629 -0.353553391,5.64644661 L5.64644661,-0.353553391 C5.84170876,-0.548815536 6.15829124,-0.548815536 6.35355339,-0.353553391 C6.54881554,-0.158291245 6.54881554,0.158291245 6.35355339,0.353553391 L0.707049251,6.00005753 L6.35361092,11.6484573 Z" id="icon-hide"></path>
                    </g>
                </g>
            </g>
        </g>
    </g>
</svg>