<?xml version="1.0" encoding="UTF-8"?>
<svg width="12px" height="16px" viewBox="0 0 12 16" version="1.1" xmlns="http://www.w3.org/2000/svg" xmlns:xlink="http://www.w3.org/1999/xlink">
    <!-- Generator: Sketch 52.5 (67469) - http://www.bohemiancoding.com/sketch -->
    <title>icon-location</title>
    <desc>Created with Sketch.</desc>
    <g id="Background" stroke="none" stroke-width="1" fill="none" fill-rule="evenodd">
        <g id="Desktop-HD-Copy-5" transform="translate(-407.000000, -930.000000)" fill="#6A57F5" fill-rule="nonzero">
            <path d="M413,946 C412,946 407,939.313708 407,936 C407,932.686292 409.686292,930 413,930 C416.313708,930 419,932.686292 419,936 C419,939.313708 414,946 413,946 Z M413.615329,944.235362 C414.206885,943.576589 414.896125,942.669107 415.540093,941.69225 C417.030651,939.431169 418,937.244157 418,936 C418,933.238576 415.761424,931 413,931 C410.238576,931 408,933.238576 408,936 C408,937.244157 408.969349,939.431169 410.459907,941.69225 C411.103875,942.669107 411.793115,943.576589 412.384671,944.235362 C412.618679,944.495959 412.828513,944.707368 413,944.857565 C413.171487,944.707368 413.381321,944.495959 413.615329,944.235362 Z M413,938 C411.619288,938 410.5,936.880712 410.5,935.5 C410.5,934.119288 411.619288,933 413,933 C414.380712,933 415.5,934.119288 415.5,935.5 C415.5,936.880712 414.380712,938 413,938 Z M413,937 C413.828427,937 414.5,936.328427 414.5,935.5 C414.5,934.671573 413.828427,934 413,934 C412.171573,934 411.5,934.671573 411.5,935.5 C411.5,936.328427 412.171573,937 413,937 Z" id="icon-location"></path>
        </g>
    </g>
</svg>