<?xml version="1.0" encoding="UTF-8"?>
<svg width="541px" height="483px" viewBox="0 0 541 483" version="1.1" xmlns="http://www.w3.org/2000/svg" xmlns:xlink="http://www.w3.org/1999/xlink">
    <!-- Generator: Sketch 52.5 (67469) - http://www.bohemiancoding.com/sketch -->
    <title>img-landing</title>
    <desc>Created with Sketch.</desc>
    <defs>
        <radialGradient cx="50%" cy="50%" fx="50%" fy="50%" r="51.8698375%" gradientTransform="translate(0.500000,0.500000),scale(0.164890,1.000000),rotate(90.000000),scale(1.000000,3.655668),translate(-0.500000,-0.500000)" id="radialGradient-1">
            <stop stop-color="#E8E8F5" offset="0%"></stop>
            <stop stop-color="#F7F7FB" offset="100%"></stop>
        </radialGradient>
        <rect id="path-2" x="8" y="0" width="436" height="296"></rect>
        <filter x="-5.0%" y="-6.1%" width="113.8%" height="120.3%" filterUnits="objectBoundingBox" id="filter-3">
            <feOffset dx="8" dy="12" in="SourceAlpha" result="shadowOffsetOuter1"></feOffset>
            <feGaussianBlur stdDeviation="8" in="shadowOffsetOuter1" result="shadowBlurOuter1"></feGaussianBlur>
            <feColorMatrix values="0 0 0 0 0   0 0 0 0 0   0 0 0 0 0  0 0 0 0.0328917572 0" type="matrix" in="shadowBlurOuter1"></feColorMatrix>
        </filter>
        <linearGradient x1="50%" y1="41.8969664%" x2="15.4437822%" y2="76.0807393%" id="linearGradient-4">
            <stop stop-color="#6E5AFF" offset="0%"></stop>
            <stop stop-color="#4937CB" offset="100%"></stop>
        </linearGradient>
        <path d="M71.9426292,273.594697 C88.6475431,246.786705 97,224.589666 97,207.00358 C97,189.417493 89.6666667,168.082967 75,143 L79.1515436,73.8674599 L66.4619434,41.9253267 C52.8871207,36.6915578 44.734462,36.6915578 42.0039673,41.9253267 C37.9082251,49.77598 7.60947506,117.050301 3.54549928,131.506888 C-0.518476489,145.963476 -1.80183726,152.106357 3.54549928,157.37836 C8.89283583,162.650362 20.7028745,185.262504 22.3638884,195.671535 C23.471231,202.610889 28.0166016,215.180339 36,233.379883 C37.6416016,232.17513 39.642924,231.09066 42.0039673,230.126472 C43.9124552,227.516441 42.0551823,207.314178 36.4321485,169.519684 L42.0039673,162.650362 C64.2630057,185.058143 75.3925249,201.057531 75.3925249,210.648526 C75.3925249,225.38691 72.0549775,245.423338 65.3798828,270.757812 L71.9426292,273.594697 Z" id="path-5"></path>
        <radialGradient cx="0%" cy="0%" fx="0%" fy="0%" r="111.286608%" gradientTransform="translate(0.000000,0.000000),scale(1.000000,0.741524),rotate(63.301837),translate(-0.000000,-0.000000)" id="radialGradient-6">
            <stop stop-color="#FFCBE0" stop-opacity="0.5" offset="0%"></stop>
            <stop stop-color="#FC3C8B" stop-opacity="0.5" offset="100%"></stop>
        </radialGradient>
        <path d="M51.956543,33.7143555 C56.2560142,32.5892849 58.4057498,31.2361268 58.4057498,29.6548811 C58.4057498,27.2830127 58.8772999,25.5716712 57.3289945,23.0173514 C55.7806891,20.4630315 57.9854609,17.6474624 60.0047797,17.6474624 C61.3509922,17.6474624 62.5070101,18.02541 63.4728335,18.7813054 C62.3506319,14.1517989 62.3506319,11.1509579 63.4728335,9.77878216 C65.1561359,7.72051861 62.2699379,4.74523837 62.2699379,2.69702287 C62.2699379,0.648807369 55.2973301,-1.69450347 49.8217664,1.76784274 C44.3462027,5.23018895 39,6.38307038 39,13.446849 C39,20.5106275 43.2978516,24.2856445 46.6982422,29 C48.9651693,32.1429036 50.7179362,33.7143555 51.956543,33.7143555 Z" id="path-7"></path>
        <radialGradient cx="19.2334739%" cy="19.5234826%" fx="19.2334739%" fy="19.5234826%" r="58.9985502%" gradientTransform="translate(0.192335,0.195235),scale(0.857143,1.000000),rotate(53.909773),translate(-0.192335,-0.195235)" id="radialGradient-8">
            <stop stop-color="#705CA5" offset="0%"></stop>
            <stop stop-color="#413977" offset="100%"></stop>
        </radialGradient>
        <path d="M75,143 C77.2604167,115.916377 78.390625,100.613357 78.390625,97.0909396 C78.390625,93.5685223 78.390625,88.0479747 78.390625,80.5292969 C92.9771441,93.8149932 102.566945,99.3355408 107.160028,97.0909396 C111.753111,94.8463384 118.699768,81.4319292 128,56.8477119 C124.381433,52.6362031 121.884568,51.2342583 120.509406,52.6418776 C119.134245,54.0494968 115.869209,60.5130546 110.714301,72.0325508 C94.709004,54.6027561 81.434902,44.1468653 70.8919946,40.6648785 C55.0776335,35.4418982 57.5303951,38.6550578 48.7278716,35.4254068 C39.925348,32.1957559 30.9612908,48.2753852 28.2061849,52.6418776 C25.451079,57.0083699 9.81153559,107.60127 6.04790682,120.621482 C3.53882097,129.301623 2.1895187,134.212863 2,135.355201 C6.3840811,133.410282 16.104619,132.021992 31.1616138,131.19033 C46.2186086,130.358667 60.831404,134.295224 75,143 Z" id="path-9"></path>
        <linearGradient x1="38.8643534%" y1="19.9344758%" x2="50%" y2="91.8535786%" id="linearGradient-10">
            <stop stop-color="#806BCA" stop-opacity="0.5" offset="0%"></stop>
            <stop stop-color="#201B31" stop-opacity="0.5" offset="100%"></stop>
        </linearGradient>
        <path d="M0,76 C5.21120821,58.8906986 12.5087252,45.733717 21.892551,36.5290553 C35.9682896,22.7220627 67.3602164,11.7975938 70.3746151,14.380205 C73.3890137,16.9628163 77.2569288,19.6156199 77.2569288,23.9750816 C77.2569288,28.3345434 76.3265085,36.3010754 79.5086975,39.7706617 C82.6908864,43.240248 87.6960466,39.7706617 89.4811486,39.7706617 C91.2662505,39.7706617 92.749563,42.5197621 96.2498543,41.6960181 C96.8829519,41.5790926 96.8829519,42.6307766 96.2498543,44.8510701 C95.5192676,46.2373893 95.1539742,48.3648542 95.1539742,51.2334647 C95.1539742,55.5363804 95.6981273,65.0822246 97.1995006,66.7639384 C98.2004161,67.885081 93.6036621,70.0289423 83.4092385,73.1955223 C80.4666944,67.7599725 78.7056735,65.0421976 78.1261756,65.0421976 C77.6619021,65.0421976 74.7354837,72.0323744 71,76 C71.0735283,76 69.6242688,76 66.6522217,76 C66.7218323,66.1334575 67.0461923,59.6822543 67.6253017,56.6463905 C68.4939659,52.0925948 51.4423828,52.8287434 51.4423828,56.6463905 C51.4423828,59.1914886 51.4423828,65.6426917 51.4423828,76 L0,76 Z" id="path-11"></path>
        <linearGradient x1="50%" y1="0%" x2="50%" y2="72.109375%" id="linearGradient-12">
            <stop stop-color="#B993FF" offset="0%"></stop>
            <stop stop-color="#6E5AFF" offset="100%"></stop>
        </linearGradient>
        <linearGradient x1="4.53625157%" y1="32.9013223%" x2="88.0464076%" y2="39.3854481%" id="linearGradient-13">
            <stop stop-color="#FFFFFF" offset="0%"></stop>
            <stop stop-color="#F0F0FC" offset="100%"></stop>
        </linearGradient>
        <linearGradient x1="50%" y1="0%" x2="0%" y2="140.783052%" id="linearGradient-14">
            <stop stop-color="#E4E4EE" offset="0%"></stop>
            <stop stop-color="#C5C5D8" offset="100%"></stop>
        </linearGradient>
    </defs>
    <g id="Background-2" stroke="none" stroke-width="1" fill="none" fill-rule="evenodd">
        <g id="Meetboard-Landing" transform="translate(-251.000000, -178.000000)" fill-rule="nonzero">
            <g id="img-landing" transform="translate(251.000000, 178.000000)">
                <path d="M192.839844,469.000416 C138.46875,454.203956 187.089844,448.855469 247.210938,443.648437 C307.332031,438.441406 444.605469,447.648022 408.289063,458.324219 C371.972656,469.000416 312.597656,457.574634 373.769531,473 C434.941406,488.425366 247.210938,483.796875 192.839844,469.000416 Z" id="Path-22" fill="url(#radialGradient-1)"></path>
                <rect id="Rectangle-Copy-2" fill="#F7F7FB" x="16" y="33" width="487" height="383"></rect>
                <g id="Group-5" transform="translate(0.000000, 76.000000)">
                    <rect id="Rectangle" fill="#EBEBF5" opacity="0.580217634" x="16" y="8" width="443" height="296"></rect>
                    <g id="Rectangle-Copy-3">
                        <use fill="black" fill-opacity="1" filter="url(#filter-3)" xlink:href="#path-2"></use>
                        <use fill="#FFFFFF" xlink:href="#path-2"></use>
                    </g>
                    <rect id="Rectangle" stroke="#4C4488" stroke-width="2" opacity="0.535551525" x="325" y="28" width="12" height="12" rx="3"></rect>
                    <rect id="Rectangle-Copy-7" fill="#4C4488" opacity="0.326776414" x="349" y="31" width="77" height="7" rx="3.5"></rect>
                    <rect id="Rectangle-Copy-11" fill="#4C4488" opacity="0.326776414" x="349" y="55" width="56" height="7" rx="3.5"></rect>
                    <rect id="Rectangle-Copy-12" fill="#4C4488" opacity="0.326776414" x="349" y="79" width="77" height="7" rx="3.5"></rect>
                    <rect id="Rectangle-Copy-15" fill="#4C4488" opacity="0.326776414" x="149" y="31" width="113" height="10" rx="5"></rect>
                    <g id="Group-8" opacity="0.44577753" transform="translate(149.000000, 63.000000)" fill="#4C4488">
                        <rect id="Rectangle-Copy-16" opacity="0.2" x="0" y="0" width="137" height="7" rx="3.5"></rect>
                        <rect id="Rectangle-Copy-17" opacity="0.2" x="0" y="16" width="137" height="7" rx="3.5"></rect>
                        <rect id="Rectangle-Copy-18" opacity="0.2" x="0" y="32" width="64" height="7" rx="3.5"></rect>
                    </g>
                    <rect id="Rectangle-Copy-13" fill="#4C4488" opacity="0.0910993304" x="349" y="103" width="56" height="7" rx="3.5"></rect>
                    <rect id="Rectangle-Copy-8" stroke="#4C4488" stroke-width="2" opacity="0.535551525" x="325" y="52" width="12" height="12" rx="3"></rect>
                    <rect id="Rectangle-Copy-9" stroke="#4C4488" stroke-width="2" opacity="0.535551525" x="325" y="76" width="12" height="12" rx="3"></rect>
                    <rect id="Rectangle-Copy-10" fill="#41DDB5" x="324" y="99" width="14" height="14" rx="3"></rect>
                    <polyline id="Path-7" stroke="#FFFFFF" stroke-width="1.5" stroke-linecap="round" stroke-linejoin="round" points="327 107.206665 329.396667 109.603333 335 104"></polyline>
                    <path d="M310.5,0 L310.5,296" id="Line" stroke="#EFEFF8" stroke-width="2" stroke-linecap="square"></path>
                    <rect id="Rectangle-Copy" fill="#3D3570" x="0" y="0" width="122" height="296"></rect>
                    <rect id="Rectangle-Copy-14" fill="#6E5AFF" x="0" y="105" width="122" height="24"></rect>
                    <g id="Group-4" transform="translate(21.000000, 66.000000)" fill="#FFFFFF">
                        <rect id="Rectangle" opacity="0.216215588" x="0" y="0" width="77" height="7" rx="3.5"></rect>
                        <rect id="Rectangle-Copy-4" opacity="0.216215588" x="0" y="24" width="64" height="7" rx="3.5"></rect>
                        <rect id="Rectangle-Copy-5" opacity="0.358863467" x="0" y="48" width="77" height="7" rx="3.5"></rect>
                        <rect id="Rectangle-Copy-6" opacity="0.216215588" x="0" y="72" width="77" height="7" rx="3.5"></rect>
                        <rect id="Rectangle-Copy-7" opacity="0.216215588" x="0" y="96" width="64" height="7" rx="3.5"></rect>
                    </g>
                    <g id="Group-24" opacity="0.495442708" transform="translate(21.000000, 21.000000)" fill="#FFFFFF">
                        <rect id="Rectangle" opacity="0.240420387" x="0" y="0" width="30" height="24" rx="4"></rect>
                        <rect id="Rectangle" x="6" y="6" width="18" height="2" rx="1"></rect>
                        <circle id="Oval-Copy-4" cx="9" cy="13" r="1"></circle>
                        <circle id="Oval-Copy-5" cx="9" cy="17" r="1"></circle>
                        <circle id="Oval-Copy-6" cx="15" cy="17" r="1"></circle>
                        <circle id="Oval-Copy-7" cx="21" cy="17" r="1"></circle>
                        <circle id="Oval-Copy-8" cx="21" cy="13" r="1"></circle>
                        <circle id="Oval-Copy-10" cx="15" cy="13" r="1"></circle>
                    </g>
                </g>
                <path d="" id="Path-8" stroke="#979797"></path>
                <g id="Group-9" transform="translate(182.000000, 186.000000)">
                    <g id="Group-6" transform="translate(69.000000, 147.500000) scale(-1, 1) translate(-69.000000, -147.500000) ">
                        <g id="Path-9">
                            <use fill="#6E5AFF" xlink:href="#path-5"></use>
                            <use fill="url(#linearGradient-4)" xlink:href="#path-5"></use>
                        </g>
                        <path d="M32.7282722,231.572754 C30.8916837,236.609212 30.2958178,239.955404 30.9406746,241.611328 C31.9079597,244.095215 39.0266121,252.679199 42.009034,257.024414 C44.9914558,261.369629 46.5085457,261.084961 43.696534,252.837402 C40.8845222,244.589844 38.4606941,240.791504 39.2595222,238.68457 C39.7920743,237.279948 37.614991,234.909342 32.7282722,231.572754 Z" id="Path-16" fill="#201B31" transform="translate(37.937134, 245.688617) scale(-1, 1) translate(-37.937134, -245.688617) "></path>
                        <path d="M63.8541772,39 C61.6460215,36.2847957 61.2257979,34.3610729 62.5935066,33.2288316 C64.6450696,31.5304697 69.819117,29.2943985 68.8892913,23.5353312 C68.2694075,19.695953 68.2694075,17.4314705 68.8892913,16.7418836 C66.3729957,13.7025805 64.6946243,11.6161068 63.8541772,10.4824625 C62.5935066,8.78199607 52.4562445,11.7946417 51.5842626,16.1047348 C50.7122808,20.414828 52.1103516,34.0566406 49.0734863,36.3015137 C47.0489095,37.7980957 51.9758065,38.6975911 63.8541772,39 Z" id="Path-11" fill="#FCD947"></path>
                        <g id="Path-12">
                            <use fill="#FC3C8B" xlink:href="#path-7"></use>
                            <use fill="url(#radialGradient-6)" xlink:href="#path-7"></use>
                        </g>
                        <path d="M64,273.048828 C62.3492839,276.816081 61.5239258,279.640137 61.5239258,281.520996 C61.5239258,284.342285 88.6005859,295.313477 89.6933594,294 C91.0293397,292.394197 79.8955078,286 72.84375,279.907227 C72.3745846,279.501864 71.7043372,278.199292 70.8330078,275.999512 L64,273.048828 Z" id="Path-2" fill="#201B31"></path>
                        <path d="M103.945037,20.7834983 L123.126376,17.930065 C124.575395,17.7145077 125.968187,18.5770086 126.420937,19.9702559 L136.386434,50.637087 C136.886074,52.1746299 136.077496,53.8315619 134.55805,54.3837963 L119.304461,59.9276306 C117.797728,60.4752446 116.126702,59.741456 115.510314,58.2615267 L101.617067,24.9042946 C100.980034,23.3747996 101.703518,21.6184817 103.233013,20.9814488 C103.461289,20.8863721 103.700445,20.8198842 103.945037,20.7834983 Z" id="Path-17" fill="#EFEEF4" transform="translate(118.709473, 39.231445) scale(-1, 1) translate(-118.709473, -39.231445) "></path>
                        <path d="M127.587997,56.956543 C128.623571,55.8473503 129.636477,53.4874049 130.626714,49.8767068 C132.112071,44.4606598 131.774734,30.457255 130.626714,32.5665596 C129.478695,34.6758642 128.4124,43.0726368 127.587997,41.6294607 C126.812706,40.2722588 126.618771,39.1660094 124.93404,44.4606598 C124.827318,44.7960585 125.039265,49.4789982 124.93404,49.8767068 C123.756493,54.3273681 122.310706,55.3999963 120.59668,53.0945913 L127.587997,56.956543 Z" id="Path-3" fill="#FCD947"></path>
                        <g id="Path-10">
                            <use fill="#4C4488" xlink:href="#path-9"></use>
                            <use fill="url(#radialGradient-8)" xlink:href="#path-9"></use>
                        </g>
                        <path d="M111.337402,49.7884439 C109.422701,45.9220561 106.696713,43.4624358 103.159437,42.4095832 C97.8535226,40.8303042 94.7675781,40.583761 94.7675781,41.5649414 C94.7675781,42.5461218 101.483887,45.8559631 101.483887,47.6774693 C101.483887,49.4989755 101.01511,49.1279212 103.864889,50.606361 C105.764742,51.5919876 107.378512,52.5804597 108.706199,53.5717773 L111.337402,49.7884439 Z" id="Path-18" fill="#FCD947" transform="translate(103.052490, 47.277572) scale(-1, 1) translate(-103.052490, -47.277572) "></path>
                        <path d="M95.9487305,58 L99.3217773,53.326484 C96.4477539,49.5534894 94.4726562,48.0825195 93.3964844,48.9135742 C92.3203125,49.7446289 90.8665365,50.6886393 89.0351562,51.7456055 L95.9487305,58 Z" id="Path-4" fill="#413977"></path>
                    </g>
                    <rect id="Rectangle" fill="#E7E7E7" x="78" y="158" width="67" height="9" rx="2"></rect>
                    <rect id="Rectangle-Copy-20" fill="#CECCCC" x="78" y="158" width="34" height="9" rx="2"></rect>
                    <polygon id="Rectangle" fill="#D8D8D8" points="82 167 85 167 77 286 74 286"></polygon>
                    <polygon id="Rectangle-Copy-19" fill="#D8D8D8" points="103 167 106 167 98 286 95 286"></polygon>
                    <polygon id="Rectangle-Copy-21" fill="#D8D8D8" transform="translate(121.500000, 226.500000) scale(-1, 1) translate(-121.500000, -226.500000) " points="124 167 127 167 119 286 116 286"></polygon>
                    <polygon id="Rectangle-Copy-22" fill="#D8D8D8" transform="translate(143.500000, 226.500000) scale(-1, 1) translate(-143.500000, -226.500000) " points="146 167 149 167 141 286 138 286"></polygon>
                </g>
                <g id="Group-7" transform="translate(227.000000, 0.000000)">
                    <path d="M151.86438,156.874968 C152.658539,155.473458 150.055527,147.779408 141.651752,141.131982 C133.247977,134.484556 122.35615,117.140509 116.838093,106.881389 C113.159389,100.041975 105.849294,85.5494295 94.9078069,63.4037533 L94.9078069,47.2581753 C93.8778635,44.9390035 94.095661,43.2649295 95.5611992,42.2359534 C97.7595066,40.6924892 101.819748,40.5557708 102.832388,41.8598322 C103.845029,43.1638936 107.276219,51.3166775 111.460804,49.856117 C115.645388,48.3955566 119.334944,48.9168321 120.398319,46.7834423 C121.461695,44.6500524 127.177998,41.2760153 127.177998,39.7625128 C127.177998,38.2490103 135.823422,29.2270461 118.74431,26.5409646 C101.665197,23.8548831 72.0502194,9.73971977 60.8504649,21.8157418 C49.6507104,33.8917637 51.0566183,58.9275326 51.0566183,66.3219653 C51.0566183,73.716398 51.4079487,95.302789 62.8528719,104.236613 C74.2977952,113.170438 90.4396357,119.4048 93.0004174,120.814454 C95.5611992,122.224109 104.942717,124.119551 107.067121,128.279283 C109.191526,132.439015 112.469045,135.064591 111.460804,132.190013 C110.452562,129.315434 110.735268,119.415272 105.273518,116.882199 C99.8117685,114.349126 91.1939108,114.806405 84.628315,109.988679 C78.0627192,105.170953 67.5310202,95.9695097 66.4952116,90.1517027 C65.4594029,84.3338957 68.4383792,54.490873 68.4383792,51.8042097 C68.4383792,49.1175464 74.6315297,66.1224145 75.4456307,63.4037533 C76.2597318,60.6850921 81.0804064,68.1854088 82.0927539,70.9314137 C83.1051015,73.6774187 98.8950251,100.367772 107.866559,113.13204 C116.838093,125.896309 129.040811,137.980476 132.415107,141.946475 C135.789404,145.912474 139.709171,155.883613 139.709171,151.613343 C139.709171,147.343073 151.070221,158.276477 151.86438,156.874968 Z" id="Path-13" fill="#FCD947"></path>
                    <g id="Path-14">
                        <use fill="#201B31" xlink:href="#path-11"></use>
                        <use fill="url(#linearGradient-10)" xlink:href="#path-11"></use>
                    </g>
                    <path d="M11.5027834,49.8301352 C11.5027834,50.828898 3.19660019,48.5429688 3.96484375,42.6777609 C4.73308731,36.812553 7.6533043,34.7184555 10.106129,29.5723272 C12.5589536,24.4261988 10.3505398,18.2388833 20.8527174,19.0394051 C31.3548949,19.8399269 37.7147188,24.4297013 45.5024371,15.4239767 C53.2901553,6.41825201 56.440867,-3.3286965 67.2397195,1.1052756 C78.0385721,5.53924771 88.3719719,16.9599088 97.6658413,14.522881 C106.959711,12.0858532 118.83547,11.8085482 123.016952,15.4239767 C127.198434,19.0394051 135.784488,31.6297465 133.670387,35.3393539 C131.556286,39.0489614 127.777184,39.8053004 124.115467,37.5723272 C120.45375,35.3393539 114.262704,37.0706203 113.370927,35.3393539 C112.47915,33.6080875 111.024392,29.9339425 108.561055,32.6366482 C106.097718,35.3393539 106.185903,36.158479 101.413407,35.3393539 C96.640911,34.5202289 90.6933952,42.6777609 89.2076843,42.6777609 C87.7219734,42.6777609 76.6782404,45.0985108 76.6782404,32.6366482 C76.6782404,20.1747856 75.0905104,13.1846086 63.2778237,16.6796971 C51.465137,20.1747856 29.8907922,26.0819038 11.5027834,49.8301352 Z" id="Path-15" fill="url(#linearGradient-12)"></path>
                </g>
                <path d="M353.78978,254.597874 C353.500717,281.931208 365.17129,287.597874 388.801498,271.597874 C412.431707,255.597874 435.863732,229.667757 459.097575,193.807523" id="Path-19" stroke="#41DDB5" stroke-width="2" stroke-linecap="round" stroke-linejoin="round" stroke-dasharray="3,5" transform="translate(406.441057, 237.133468) rotate(16.000000) translate(-406.441057, -237.133468) "></path>
                <g id="Group-10" transform="translate(464.000000, 164.000000)">
                    <polygon id="Path-20" fill="url(#linearGradient-13)" points="0 15.3857422 17.5390625 25 17.5390625 45.6826172 33.9326172 35.8037109 42.5546875 41.0006045 76.2089844 1"></polygon>
                    <polygon id="Path-21" fill="url(#linearGradient-14)" points="17.6484375 25.2382813 76.4355469 0.83203125 25.7758789 30.7041016 34.0546875 35.6972656 17.6484375 45.4541016"></polygon>
                </g>
            </g>
        </g>
    </g>
</svg>