<?xml version="1.0" encoding="UTF-8"?>
<svg width="118px" height="110px" viewBox="0 0 118 110" version="1.1" xmlns="http://www.w3.org/2000/svg" xmlns:xlink="http://www.w3.org/1999/xlink">
    <!-- Generator: Sketch 52.5 (67469) - http://www.bohemiancoding.com/sketch -->
    <title>img-clock</title>
    <desc>Created with Sketch.</desc>
    <defs>
        <radialGradient cx="50%" cy="50%" fx="50%" fy="50%" r="51.8698375%" gradientTransform="translate(0.500000,0.500000),scale(0.150957,1.000000),rotate(90.000000),scale(1.000000,3.655668),translate(-0.500000,-0.500000)" id="radialGradient-1">
            <stop stop-color="#E8E8F5" offset="0%"></stop>
            <stop stop-color="#F7F7FB" offset="100%"></stop>
        </radialGradient>
        <linearGradient x1="0%" y1="33.215518%" x2="127.2278%" y2="76.3121723%" id="linearGradient-2">
            <stop stop-color="#F7F7FB" offset="0%"></stop>
            <stop stop-color="#D6D6EA" offset="100%"></stop>
        </linearGradient>
        <linearGradient x1="50%" y1="-33.1262623%" x2="50%" y2="100%" id="linearGradient-3">
            <stop stop-color="#A793FF" offset="0%"></stop>
            <stop stop-color="#6E5AFF" offset="100%"></stop>
        </linearGradient>
    </defs>
    <g id="Background-2" stroke="none" stroke-width="1" fill="none" fill-rule="evenodd">
        <g id="Desktop-HD-Copy-2" transform="translate(-815.000000, -231.000000)" fill-rule="nonzero">
            <g id="Group-7" transform="translate(739.000000, 231.000000)">
                <g id="img-clock" transform="translate(76.000000, 0.000000)">
                    <path d="M11.275414,104.182867 C-14.6983554,97.4692045 8.52856521,95.0424116 37.2491834,92.6798024 C65.9698017,90.3171931 131.547085,94.4945515 114.198271,99.3387094 C96.849458,104.182867 124.856875,103.450518 106.871598,107.173524 C88.8863199,110.89653 37.2491834,110.89653 11.275414,104.182867 Z" id="Path-22" fill="url(#radialGradient-1)"></path>
                    <path d="M32.5522388,6.59640888 L85.2985075,6.59640888 C85.2985075,19.1073173 84.4552798,28.0798133 82.7688245,33.5138967 C80.2391416,41.6650219 61.6039255,45.6899199 61.5626866,51.0640428 C61.5214476,56.4381657 79.9076368,63.2490074 82.6030721,72.631767 C84.400029,78.8869401 85.2985075,86.5202433 85.2985075,95.5316767 L32.5522388,95.5316767 C32.5522388,85.549093 33.4888755,77.7830167 35.3621488,72.2334478 C38.1720588,63.9090946 56.2880597,56.7777758 56.2880597,51.0640428 C56.2880597,45.3503098 38.2126593,43.5195953 35.382449,33.3489682 C33.4956422,26.5685502 32.5522388,17.6510304 32.5522388,6.59640888 Z" id="Rectangle" fill="url(#linearGradient-2)"></path>
                    <rect id="Rectangle" fill="#E7E7E7" x="30" y="0" width="57" height="8" rx="2"></rect>
                    <rect id="Rectangle-Copy-20" fill="#CECCCC" x="66" y="0" width="21" height="8" rx="2"></rect>
                    <rect id="Rectangle-Copy-7" fill="#E7E7E7" x="30" y="95" width="57" height="8" rx="2"></rect>
                    <rect id="Rectangle-Copy-21" fill="#CECCCC" x="66" y="95" width="21" height="8" rx="2"></rect>
                    <path d="M33.9511719,92.0561523 C33.9511719,90.2988281 34.1870117,82.7363281 34.9492187,80.5400391 C35.7114258,78.34375 57.3588867,72.9082031 59.7177734,72.9082031 C62.0766602,72.9082031 78.6625977,80.4189453 80.1245117,79.3911133 C81.5864258,78.3632813 83.2573242,82.4119057 83.2573242,84.0053711 C83.2573242,85.5988365 84.3212891,93.8134766 83.2573242,93.8134766 C82.5480143,93.8134766 66.7084961,93.8134766 35.7387695,93.8134766 C34.5470378,93.8134766 33.9511719,93.2277018 33.9511719,92.0561523 Z" id="Path-5" fill="url(#linearGradient-3)"></path>
                    <path d="M43.5478516,39.2832031 C44.644535,42.0537892 52.1225586,44.2890625 53.5830078,45.4785156 C55.043457,46.6679688 58.3128383,49.0698242 58.3128383,50.6201172 C58.3128383,52.1704102 61.953125,45.4814453 65.9765625,43.5859375 C70,41.6904297 73.9516602,39.8041992 74.7524414,38.3486328 C75.5532227,36.8930664 65.440918,37.4287109 61.21875,38.3486328 C56.996582,39.2685547 54.1269531,37.3271484 50.3564453,37.3271484 C46.5859375,37.3271484 42.4511682,36.5126171 43.5478516,39.2832031 Z" id="Path-6" fill="#7D69FF"></path>
                    <circle id="Oval" fill="#7D69FF" cx="58.5" cy="51.5" r="1"></circle>
                    <circle id="Oval-Copy" fill="#7D69FF" cx="58.5" cy="69.5" r="1"></circle>
                    <circle id="Oval-Copy-3" fill="#7D69FF" cx="59.5" cy="71.5" r="1"></circle>
                    <circle id="Oval-Copy-4" fill="#7D69FF" cx="59.5" cy="54.5" r="1"></circle>
                    <circle id="Oval-Copy-2" fill="#7D69FF" cx="58.5" cy="61.5" r="1"></circle>
                    <path d="M35.3623047,13.7929687 C35.9580078,22.1640625 36.7807617,27.7127279 37.8305664,30.4389648 C39.4052734,34.5283203 40.8125,37.3686523 42.3232422,35.3071289 C43.8339844,33.2456055 42.9768471,32.3132295 41.0439453,28.4384766 C39.1110435,24.5637236 37.8305664,17.6987305 37.8305664,14.7817383 C37.8305664,12.8370768 37.0078125,12.507487 35.3623047,13.7929687 Z" id="Path-25" fill="#FFFFFF"></path>
                    <path d="M38.6064453,91.2353516 C36.9375,91.2353516 36.3256836,91.1181641 36.690918,86.0454102 C37.0561523,80.9726563 37.1489258,77.5629883 39.6450195,72.7255859 C42.1411133,67.8881836 42.34375,72.7617188 41.1630859,75.1591797 C39.9824219,77.5566406 39.7401691,84.2382813 39.7401691,86.0454102 C39.7401691,87.8525391 40.2753906,91.2353516 38.6064453,91.2353516 Z" id="Path-26" fill="#FFFFFF"></path>
                    <path d="M44.2182617,67.8735352 C43.540307,67.4776808 44.3188477,65.8916016 46.1577148,64.5737305 C47.1507762,63.8620277 50.0344766,61.51974 50.6186523,62.0615234 C51.1162039,62.5229688 47.797003,65.5507208 47.3431066,65.9819336 C46.3562902,66.9194336 44.8962164,68.2693895 44.2182617,67.8735352 Z" id="Path-27" fill="#FFFFFF"></path>
                </g>
            </g>
        </g>
    </g>
</svg>